# xmcd
#
# Track frame offsets:
#	150
#	21077
#	38470
#	51357
#	91240
#	116379
#	137485
#	157689
#	174891
#	196903
#	222902
#	247093
#	280818
#
# Disc length: 4504 seconds
#
# Revision: 1
# Processed by: cddbd v1.5PL3 Copyright (c) Steve Scherf et al.
# Submitted via: CDmax 2.0
#
DISCID=a111960d
DTITLE=The Original Acoustic Hot Tuna (Jorma and Jack) - Live at the Fox Theatr
DTITLE=e, Boulder, CO - 12.13.2000 - D2
DYEAR=2000
DGENRE=Blues
TTITLE0=The Terrible Operation
TTITLE1=Day To Day Blues
TTITLE2=A Life Well Lived
TTITLE3=Good Shepard
TTITLE4=Watch The North Wind Rise
TTITLE5=Third Week In Chelsea
TTITLE6=Genesis
TTITLE7=Another Man Done Gone
TTITLE8=Parchman Farm
TTITLE9=Whinin' Boy Blues
TTITLE10=Nine Pound Hammer
TTITLE11=Water Song
TTITLE12=Encore: Same Thing
EXTD=
EXTT0=
EXTT1=
EXTT2=
EXTT3=
EXTT4=
EXTT5=
EXTT6=
EXTT7=
EXTT8=
EXTT9=
EXTT10=
EXTT11=
EXTT12=
PLAYORDER=
